<?xml version="1.0" encoding="UTF-8"?>
<svg id="Layer_2" data-name="Layer 2" xmlns="http://www.w3.org/2000/svg" viewBox="0 0 246.94 219.2">
  <defs>
    <style>
      .cls-1 {
        fill: #fff;
      }
    </style>
  </defs>
  <g id="Layer_1-2" data-name="Layer 1">
    <g id="lZdFqc">
      <path class="cls-1" d="m145.75,109.64c33.87,23.72,67.47,47.24,101.19,70.85-3.58,5.38-8.07,9.59-13.74,12.34-13.11,6.36-25.99,5.95-38.08-2.43-26.95-18.7-53.77-37.59-80.64-56.4-.54-.38-1.08-.75-1.76-1.22-9.62,6.73-19.24,13.47-28.5,19.95,1.48,4.73,3.29,9.14,4.23,13.73,5.14,25.19-13.39,50.04-38.97,52.51-24.39,2.35-45.48-14.17-48.97-38.34-3.47-24.05,13.99-47,38.12-50.12,8.37-1.08,16.4.04,24.16,3.35.63.27,1.69.29,2.21-.07,11.31-7.83,22.57-15.74,33.84-23.63.15-.1.27-.23.61-.53-.49-.38-.93-.73-1.39-1.05-10.87-7.62-21.76-15.22-32.61-22.87-1.02-.72-1.79-.71-2.9-.26-17.02,6.8-32.99,4.8-46.88-7.15C1.81,66.37-2.92,50.77,1.73,33.17,6.39,15.52,18.34,4.45,36.26.97c17.77-3.45,32.88,2.32,43.83,16.72,10.95,14.4,12.06,30.3,4.54,46.76-.25.54-.53,1.07-.88,1.77,9.64,6.75,19.27,13.5,28.97,20.3,3.67-2.57,7.31-5.11,10.94-7.66,23.87-16.71,47.71-33.47,71.62-50.11,16.36-11.39,38.95-7.47,50.7,8.65.28.38.53.79.94,1.41-33.67,23.58-67.29,47.12-101.17,70.85ZM66.53,44.81c.06-11.96-9.58-21.74-21.51-21.83-12.06-.1-21.89,9.54-21.98,21.54-.08,11.97,9.57,21.85,21.42,21.92,12.22.07,22.01-9.52,22.07-21.63Zm0,129.72c-.02-12.02-9.76-21.69-21.84-21.68-11.92.01-21.62,9.74-21.64,21.7-.02,12.04,9.68,21.75,21.75,21.77,12.01.02,21.76-9.74,21.74-21.78Z"/>
    </g>
  </g>
</svg>