<?xml version="1.0" encoding="UTF-8"?>
<svg id="Layer_2" data-name="Layer 2" xmlns="http://www.w3.org/2000/svg" viewBox="0 0 200.51 220">
  <defs>
    <style>
      .cls-1 {
        fill: #fff;
      }
    </style>
  </defs>
  <g id="Layer_1-2" data-name="Layer 1">
    <g id="Z9K4E4.tif">
      <g>
        <path class="cls-1" d="m179.75,220H30.65c-.39-.14-.78-.34-1.19-.41C12.33,216.94.03,202.61.03,185.24c0-41.96-.08-83.93.04-125.89.04-13.9,6.66-24.13,18.74-30.82,3.61-2,7.54-3.2,11.4-3.48.74,6.61,1.42,12.99,2.18,19.37,1.27,10.73,10.41,19.1,21.15,19.15,19.05.09,38.1.09,57.15,0,10.58-.05,19.75-8.35,21.01-18.76.79-6.56,1.54-13.14,2.31-19.77-.05,0,.24-.04.52,0,13.27,2.34,22.48,9.74,27.53,22.23,2.17,5.36,2.41,11.02,2.15,16.69-.11,2.26.17,4.03,2.54,4.98.69.28,1.24.96,1.79,1.52,8.87,8.85,17.77,17.68,26.57,26.6,3.44,3.49,5.37,7.8,5.37,12.74.05,28.86.08,57.72,0,86.58-.03,10.33-6.81,19.23-16.65,22.41-1.34.43-2.7.81-4.06,1.22Zm-23.58-142.82c-.79-.07-1.28-.15-1.77-.15-18.91,0-37.81-.06-56.72.02-7.48.03-12.51,5.36-12.51,12.92,0,35.02,0,70.04,0,105.06,0,7.7,5.21,12.92,12.95,12.93,25.78.02,51.56.02,77.34,0,7.78,0,12.93-5.19,12.93-12.92,0-21.2,0-42.39,0-63.59,0-6.87-.05-13.75.03-20.62.03-1.98-.48-2.83-2.65-2.73-3.72.17-7.45.05-11.17.05-10.91,0-18.43-7.55-18.44-18.52,0-4.08,0-8.15,0-12.44Z"/>
        <path class="cls-1" d="m85.22,0c3.6,1.16,7.17,2.33,10.03,5.02,3.63,3.42,5.88,7.5,6.39,12.5.07.7.23,1.39.38,2.24,4.23,0,8.37-.01,12.52,0,5.9.02,9.52,3.84,8.98,9.75-.46,4.98-1.09,9.95-1.86,14.89-.8,5.1-5.71,9.12-11.23,9.14-18.89.06-37.78.06-56.67,0-5.81-.02-10.57-4.31-11.36-10.03-.63-4.53-1.19-9.07-1.72-13.62-.7-5.98,3.01-10.12,9.04-10.14,4.14-.01,8.27,0,12.56,0,.14-1.15.21-2.13.37-3.09,1.4-8.28,7.16-14.34,15.39-16.24.41-.09.79-.29,1.19-.43,2.01,0,4.01,0,6.02,0Zm7.01,19.71c0-5.72-4.53-10.28-10.19-10.25-5.59.03-10.24,4.74-10.19,10.33.05,5.48,4.65,10.08,10.17,10.17,5.55.08,10.21-4.59,10.21-10.25Z"/>
        <path class="cls-1" d="m136.99,140.51c10.6,0,21.19-.02,31.79.01,3.28.01,5.93,1.96,6.88,4.86.89,2.71.15,5.86-2.23,7.52-1.33.93-3.11,1.71-4.69,1.71-21.26.11-42.52.1-63.79.06-4.4,0-7.34-3.1-7.27-7.31.07-3.96,3.18-6.83,7.53-6.84,10.6-.03,21.19,0,31.79,0Z"/>
        <path class="cls-1" d="m136.84,171.44c10.45,0,20.91,0,31.36,0,4.61,0,7.76,2.86,7.78,7.02.01,4.15-3.17,7.11-7.74,7.11-20.98.01-41.96.01-62.93,0-4.58,0-7.66-2.94-7.63-7.18.03-4.14,3.08-6.94,7.59-6.94,10.52,0,21.05,0,31.57,0Z"/>
        <path class="cls-1" d="m123.02,123.75c-5.94,0-11.88.01-17.82,0-4.5-.01-7.52-2.84-7.53-7-.01-4.14,3.06-7.11,7.46-7.12,12.09-.02,24.18-.02,36.27,0,4.42,0,7.43,2.95,7.41,7.14-.02,4.07-3.02,6.96-7.33,6.98-6.15.03-12.31,0-18.46,0Z"/>
      </g>
    </g>
  </g>
</svg>