<?xml version="1.0" encoding="UTF-8"?>
<svg id="Layer_2" data-name="Layer 2" xmlns="http://www.w3.org/2000/svg" viewBox="0 0 161.67 220">
  <defs>
    <style>
      .cls-1 {
        fill: #fff;
      }
    </style>
  </defs>
  <g id="Layer_1-2" data-name="Layer 1">
    <g id="qSBKiE.tif">
      <g>
        <path class="cls-1" d="m84.85,0l-1.86.21s-.01.04-.02.06c.24.04.48.1.72.11,7.04.39,13.23,2.98,18.7,7.34,7.01,5.59,11.17,12.88,12.61,21.71.32,2,.45,4.04.45,6.07.04,14.34.02,28.67.02,43.01,0,7.95,0,15.89-.01,23.84,0,3.92-.38,7.81-1.56,11.56-3.43,10.91-10.46,18.56-21.15,22.63-13.01,4.95-27.62,1.39-37.21-8.89-5.08-5.45-8.09-11.89-9.02-19.27-.26-2.05-.39-4.14-.39-6.21-.03-21.72-.03-43.44,0-65.15,0-5.1.52-10.14,2.52-14.91,4.61-11,12.66-18.05,24.24-20.98,1.6-.41,3.29-.47,4.94-.69.24-.03.48-.06.71-.18-.46-.08-.93-.17-1.39-.25,2.57,0,5.15,0,7.72,0Z"/>
        <path class="cls-1" d="m71.71,220c.63-.03,1.25-.09,1.88-.09,5.61-.01,11.22-.01,16.83-.01.31,0,.62.07.93.1-6.55,0-13.1,0-19.64,0Z"/>
        <path class="cls-1" d="m0,104.07h19.5c.08,1.62.13,3.22.25,4.81.29,4.04,1.03,8,2.18,11.88,1.46,4.91,3.56,9.53,6.28,13.87,4.03,6.43,9.19,11.81,15.27,16.31,6.08,4.49,12.81,7.73,20.08,9.76,4.7,1.32,9.49,2.08,14.39,2.31,9.23.43,18.12-1.09,26.66-4.53,6.57-2.65,12.61-6.22,17.87-11.02,2.39-2.18,4.7-4.42,6.75-6.93,5.22-6.4,8.92-13.57,11.01-21.57,1.02-3.92,1.66-7.89,1.78-11.95.03-.96.11-1.93.17-2.93.26-.01.48-.03.7-.03,6.01,0,12.01,0,18.02-.02.66,0,.79.22.78.82-.1,4.11-.44,8.19-1.17,12.24-1.2,6.64-3.25,13.01-6.2,19.09-2.75,5.67-6.09,10.94-10.04,15.85-2.16,2.68-4.39,5.27-6.92,7.61-4.5,4.16-9.33,7.88-14.59,11.06-5.43,3.28-11.15,5.91-17.16,7.88-3.98,1.31-8.06,2.29-12.21,2.96-1.1.18-1.08.2-1.08,1.34.01,12.03.01,24.07.03,36.1,0,.51-.17.66-.66.66-6.86-.02-13.72-.03-20.59-.04-.34,0-.68-.03-1.01.02-.63.1-.76-.17-.75-.74.02-10.18.02-20.36.02-30.55,0-1.96-.05-3.93-.04-5.89,0-.5-.14-.7-.66-.79-6.79-1.13-13.37-3-19.67-5.75-5.28-2.3-10.29-5.1-15.01-8.44-5.15-3.64-9.82-7.8-14.05-12.47-4.52-4.99-8.31-10.51-11.41-16.48-3.01-5.8-5.31-11.89-6.69-18.29-.87-4.04-1.54-8.1-1.65-12.25-.03-1.28-.11-2.56-.17-3.91Z"/>
      </g>
    </g>
  </g>
</svg>